<?xml version="1.0" encoding="iso-8859-1"?>
<!-- Generator: Adobe Illustrator 19.2.1, SVG Export Plug-In . SVG Version: 6.00 Build 0)  -->
<svg version="1.1" xmlns="http://www.w3.org/2000/svg" xmlns:xlink="http://www.w3.org/1999/xlink" x="0px" y="0px"
	 viewBox="0 0 32.177 32.003" style="enable-background:new 0 0 32.177 32.003;" xml:space="preserve">
<g id="Layer_25">
	<path style="fill:#95CC29;" d="M29.387,20.998c-1.394-1.126-3.342-3.121-3.426-4.918c-2.944,1.054-3.364,3.586-2.456,6.566
		c-1.165-0.13-1.645-0.799-2.219-1.793c-1.936,0.74-3.091,3.149-3.198,5.149H18.1c0.118,4,3.643,5.992,6.948,5.992
		C29.861,31.995,35.362,25.822,29.387,20.998z"/>
	<path style="fill:#666666;" d="M28,10.746V2.003h-0.911H20v0.743l-1.883-1.873C17.538,0.294,16,0.001,16-0.003v0.005h0.084
		c-0.767,0-1.54,0.291-2.123,0.875L0.881,13.956C0.298,14.538-0.001,15.31,0,16.077c-0.001,0.765,0.293,1.543,0.881,2.13
		c0.585,0.586,1.317,0.882,2.083,0.881C3.33,19.088,4,19.011,4,18.876v13.126h6.089H18v-2h-6V23c0-0.552,0.537-0.997,1.089-0.997H18
		v-2h-4.911C11.431,20.003,10,21.343,10,23v7.003H6V17.254l8.483-8.456c0.609-0.609,1.161-1.14,1.583-1.563
		c1.712,1.714,5.299,5.298,7.907,7.911l0.006,0.001l0.003,0l1.417-1.413l-7.424-7.44l-1.18-1.181l-0.707-0.707l-1.887,1.887
		l-0.001,0.001l-1.115,1.117c-3.514,3.519-9.365,9.38-9.366,9.381c-0.199,0.199-0.451,0.294-0.712,0.295
		c-0.262-0.001-0.514-0.097-0.713-0.295C2.097,16.593,2.001,16.341,2,16.076c0.001-0.258,0.096-0.509,0.295-0.708L15.376,2.291
		c0.196-0.196,0.448-0.289,0.709-0.289h0.004h0.004c0.26,0,0.513,0.093,0.709,0.289L29.882,15.37
		c0.199,0.199,0.294,0.45,0.295,0.709c-0.001,0.263-0.097,0.515-0.295,0.714c-0.188,0.188-0.423,0.282-0.669,0.294l0.084,1.998
		c0.724-0.029,1.447-0.325,2-0.878c0.586-0.586,0.882-1.363,0.881-2.128c0.001-0.767-0.341-1.541-0.925-2.125L28,10.746z M26,8.746
		l-0.494-0.539l-1.937-1.914L22,4.746V4.003h4V8.746z"/>
	<rect x="0.09" style="fill:none;" width="32" height="32"/>
</g>
<g id="Layer_1">
</g>
</svg>
